<svg width="34" height="34" viewBox="0 0 34 34" fill="none" xmlns="http://www.w3.org/2000/svg">
<g clip-path="url(#clip0_1051_2893)">
<path fill-rule="evenodd" clip-rule="evenodd" d="M26.9162 6.71618V11.3331C27.4743 11.3331 28.027 11.443 28.5426 11.6566C29.0582 11.8702 29.5267 12.1832 29.9214 12.5779C30.316 12.9725 30.6291 13.4411 30.8427 13.9567C31.0563 14.4723 31.1662 15.025 31.1662 15.5831C31.1662 16.1412 31.0563 16.6939 30.8427 17.2095C30.6291 17.7251 30.316 18.1937 29.9214 18.5883C29.5267 18.9829 29.0582 19.296 28.5426 19.5096C28.027 19.7232 27.4743 19.8331 26.9162 19.8331V24.0831C26.9162 26.4178 24.2514 27.7508 22.3828 26.3498L19.4645 24.1596C17.9046 22.9899 16.0882 22.209 14.1662 21.8816V25.9106C14.1663 26.8367 13.8317 27.7317 13.224 28.4305C12.6162 29.1294 11.7763 29.585 10.8591 29.7133C9.94194 29.8417 9.00926 29.6342 8.23301 29.1291C7.45677 28.6239 6.88929 27.8552 6.63518 26.9646L4.41102 19.1786C3.61062 18.2334 3.08974 17.0837 2.90692 15.8586C2.7241 14.6336 2.88659 13.3819 3.37612 12.2442C3.86565 11.1065 4.66282 10.1279 5.67801 9.41832C6.69321 8.70879 7.88619 8.29649 9.12285 8.22776L13.3983 7.98976C15.4902 7.87335 17.5246 7.26207 19.3342 6.20618L22.6548 4.26818C24.5447 3.16743 26.9162 4.52884 26.9162 6.71618ZM7.98102 21.3603L9.35943 26.1868C9.42577 26.4205 9.5744 26.6222 9.77788 26.7548C9.98136 26.8874 10.2259 26.9419 10.4665 26.9082C10.707 26.8746 10.9272 26.755 11.0864 26.5716C11.2457 26.3883 11.3332 26.1535 11.3328 25.9106V21.6464L9.12285 21.5232C8.73826 21.5018 8.35623 21.4473 7.98102 21.3603ZM24.0828 6.71618L20.7608 8.65559C18.7425 9.83205 16.4921 10.5543 14.1662 10.7721V19.0157C16.6978 19.3642 19.1075 20.3516 21.1645 21.8929L24.0828 24.0831V6.71618ZM11.3328 10.9421L9.27868 11.0554C8.32306 11.1082 7.42195 11.5173 6.75321 12.202C6.08448 12.8866 5.69671 13.7971 5.66647 14.7537C5.63623 15.7103 5.9657 16.6435 6.58985 17.3691C7.214 18.0946 8.08747 18.5598 9.03785 18.6728L9.27868 18.6941L11.3328 18.8074V10.9421ZM26.9162 14.1664V16.9998C27.2773 16.9994 27.6246 16.8611 27.8871 16.6132C28.1497 16.3654 28.3077 16.0266 28.3288 15.6661C28.35 15.3057 28.2327 14.9507 28.001 14.6738C27.7692 14.3969 27.4405 14.219 27.0819 14.1763L26.9162 14.1664Z" fill="#007BFF"/>
</g>
<defs>
<clipPath id="clip0_1051_2893">
<rect width="34" height="34" fill="white"/>
</clipPath>
</defs>
</svg>
