<svg width="23" height="20" viewBox="0 0 23 20" fill="none" xmlns="http://www.w3.org/2000/svg">
<path d="M12.5775 16.0835L18.9025 10.5835C18.9983 10.5001 19.0663 10.4099 19.1066 10.3126C19.1468 10.2154 19.1666 10.1112 19.166 10.0001C19.166 9.88902 19.1459 9.78485 19.1056 9.68763C19.0654 9.59041 18.9977 9.50013 18.9025 9.4168L12.5775 3.9168C12.4018 3.76402 12.182 3.6843 11.9181 3.67763C11.6543 3.67097 11.4268 3.75069 11.2358 3.9168C11.0441 4.06958 10.9441 4.26069 10.9358 4.49013C10.9275 4.71958 11.0195 4.91735 11.2118 5.08347L15.9077 9.1668H5.19829C4.92677 9.1668 4.699 9.2468 4.515 9.4068C4.331 9.5668 4.23932 9.76458 4.23996 10.0001C4.23996 10.2362 4.33164 10.4343 4.515 10.5943C4.69836 10.7543 4.92613 10.834 5.19829 10.8335H15.9077L11.2118 14.9168C11.0361 15.0696 10.9441 15.264 10.9358 15.5001C10.9275 15.7362 11.0195 15.9307 11.2118 16.0835C11.3875 16.2501 11.6111 16.3335 11.8827 16.3335C12.1542 16.3335 12.3858 16.2501 12.5775 16.0835Z" fill="#FF0000"/>
</svg>
