<svg width="23" height="23" viewBox="0 0 23 23" fill="none" xmlns="http://www.w3.org/2000/svg">
<path d="M1.91732 5.05034L3.14398 3.83325L19.1673 19.8566L17.9502 21.0833L14.9986 18.1316C13.8965 18.4958 12.7273 18.6874 11.5007 18.6874C6.70898 18.6874 2.6169 15.707 0.958984 11.4999C1.62023 9.81325 2.6744 8.32784 4.01607 7.14909L1.91732 5.05034ZM11.5007 8.62492C12.2631 8.62492 12.9944 8.92782 13.5336 9.46699C14.0728 10.0062 14.3757 10.7374 14.3757 11.4999C14.3761 11.8263 14.321 12.1504 14.2127 12.4583L10.5423 8.78784C10.8502 8.67953 11.1743 8.62443 11.5007 8.62492ZM11.5007 4.31242C16.2923 4.31242 20.3844 7.29284 22.0423 11.4999C21.2602 13.4867 19.9311 15.2113 18.209 16.4737L16.8482 15.1033C18.1734 14.1865 19.2423 12.9461 19.9532 11.4999C19.1784 9.91861 17.9756 8.58636 16.4814 7.65461C14.9872 6.72286 13.2616 6.22897 11.5007 6.22909C10.4561 6.22909 9.43065 6.40159 8.47232 6.70825L6.99648 5.242C8.37648 4.64784 9.90024 4.31242 11.5007 4.31242ZM3.04815 11.4999C3.82291 13.0812 5.02574 14.4135 6.51993 15.3452C8.01413 16.277 9.73975 16.7709 11.5007 16.7708C12.1619 16.7708 12.8136 16.7037 13.4173 16.5695L11.2323 14.3749C10.5655 14.3034 9.94319 14.0058 9.46896 13.5316C8.99473 13.0574 8.69713 12.4351 8.62565 11.7683L5.36732 8.50034C4.41857 9.31492 3.62315 10.3308 3.04815 11.4999Z" fill="black" fill-opacity="0.33"/>
</svg>
