<svg width="16" height="13" viewBox="0 0 16 13" fill="none" xmlns="http://www.w3.org/2000/svg">
<path d="M9.3 11.7748C9.1 11.5748 9.004 11.3331 9.012 11.0498C9.02067 10.7665 9.125 10.5248 9.325 10.3248L12.15 7.4998H1C0.716667 7.4998 0.479 7.4038 0.287 7.2118C0.0956668 7.02047 0 6.78314 0 6.4998C0 6.21647 0.0956668 5.9788 0.287 5.7868C0.479 5.59547 0.716667 5.4998 1 5.4998H12.15L9.3 2.6498C9.1 2.4498 9 2.21214 9 1.9368C9 1.66214 9.1 1.4248 9.3 1.2248C9.5 1.0248 9.73767 0.924805 10.013 0.924805C10.2877 0.924805 10.525 1.0248 10.725 1.2248L15.3 5.7998C15.4 5.8998 15.471 6.00814 15.513 6.1248C15.5543 6.24147 15.575 6.36647 15.575 6.4998C15.575 6.63314 15.5543 6.75814 15.513 6.8748C15.471 6.99147 15.4 7.0998 15.3 7.1998L10.7 11.7998C10.5167 11.9831 10.2877 12.0748 10.013 12.0748C9.73767 12.0748 9.5 11.9748 9.3 11.7748Z" fill="white"/>
</svg>
