<svg width="22" height="22" viewBox="0 0 22 22" fill="none" xmlns="http://www.w3.org/2000/svg">
<path fill-rule="evenodd" clip-rule="evenodd" d="M6.875 5.5C6.875 4.40598 7.3096 3.35677 8.08319 2.58318C8.85677 1.8096 9.90598 1.375 11 1.375C12.094 1.375 13.1432 1.8096 13.9168 2.58318C14.6904 3.35677 15.125 4.40598 15.125 5.5C15.125 6.59402 14.6904 7.64323 13.9168 8.41681C13.1432 9.1904 12.094 9.625 11 9.625C9.90598 9.625 8.85677 9.1904 8.08319 8.41681C7.3096 7.64323 6.875 6.59402 6.875 5.5ZM3.43842 18.4296C3.46933 16.4445 4.27959 14.5512 5.6943 13.1584C7.10901 11.7655 9.0147 10.9848 11 10.9848C12.9853 10.9848 14.891 11.7655 16.3057 13.1584C17.7204 14.5512 18.5307 16.4445 18.5616 18.4296C18.564 18.5632 18.5273 18.6947 18.4562 18.8078C18.3851 18.9209 18.2825 19.0109 18.161 19.0667C15.9144 20.0967 13.4715 20.6283 11 20.625C8.44617 20.625 6.01975 20.0677 3.839 19.0667C3.71753 19.0109 3.61495 18.9209 3.5438 18.8078C3.47265 18.6947 3.43603 18.5632 3.43842 18.4296Z" fill="#848484"/>
</svg>
