<svg width="18" height="16" viewBox="0 0 18 16" fill="none" xmlns="http://www.w3.org/2000/svg">
<path d="M18 3.25008V15.7501H0V3.25008H5.625V2.00008C5.625 1.8243 5.6543 1.66154 5.71289 1.5118C5.77148 1.36206 5.85059 1.23185 5.9502 1.12118C6.0498 1.0105 6.16992 0.919352 6.31055 0.847738C6.45117 0.776123 6.59766 0.743571 6.75 0.750081H11.25C11.4082 0.750081 11.5547 0.782633 11.6895 0.847738C11.8242 0.912842 11.9414 1.00073 12.041 1.11141C12.1406 1.22209 12.2227 1.35555 12.2871 1.5118C12.3516 1.66805 12.3809 1.83081 12.375 2.00008V3.25008H18ZM6.75 3.25008H11.25V2.00008H6.75V3.25008ZM1.125 4.50008V6.30672L6.75 9.42196V8.25008H11.25V9.42196L16.875 6.30672V4.50008H1.125ZM7.875 9.50008V10.7501H10.125V9.50008H7.875ZM16.875 14.5001V7.69344L11.25 10.8282V12.0001H6.75V10.8282L1.125 7.69344V14.5001H16.875Z" fill="black" fill-opacity="0.43"/>
</svg>
