<svg width="22" height="22" viewBox="0 0 22 22" fill="none" xmlns="http://www.w3.org/2000/svg">
<path d="M6.6061 22C6.00054 22 5.48233 21.7848 5.05147 21.3543C4.61987 20.9231 4.40407 20.405 4.40407 19.8C4.40407 19.195 4.61987 18.6769 5.05147 18.2457C5.48233 17.8152 6.00054 17.6 6.6061 17.6C7.21166 17.6 7.72987 17.8152 8.16074 18.2457C8.59234 18.6769 8.80814 19.195 8.80814 19.8C8.80814 20.405 8.59234 20.9231 8.16074 21.3543C7.72987 21.7848 7.21166 22 6.6061 22ZM17.6163 22C17.0107 22 16.4925 21.7848 16.0616 21.3543C15.63 20.9231 15.4142 20.405 15.4142 19.8C15.4142 19.195 15.63 18.6769 16.0616 18.2457C16.4925 17.8152 17.0107 17.6 17.6163 17.6C18.2218 17.6 18.7404 17.8152 19.172 18.2457C19.6029 18.6769 19.8183 19.195 19.8183 19.8C19.8183 20.405 19.6029 20.9231 19.172 21.3543C18.7404 21.7848 18.2218 22 17.6163 22ZM4.62427 2.2H20.8643C21.2863 2.2 21.6075 2.38773 21.8277 2.7632C22.0479 3.1394 22.057 3.52 21.8552 3.905L17.9466 10.945C17.7447 11.3117 17.4739 11.5958 17.134 11.7975C16.7949 11.9992 16.4235 12.1 16.0198 12.1H7.81722L6.6061 14.3H19.8183V16.5H6.6061C5.78034 16.5 5.15643 16.1377 4.73437 15.4132C4.31232 14.6894 4.29397 13.97 4.67932 13.255L6.1657 10.56L2.20203 2.2H0V0H3.57831L4.62427 2.2Z" fill="#9E9E9E"/>
</svg>
