<svg width="22" height="22" viewBox="0 0 22 22" fill="none" xmlns="http://www.w3.org/2000/svg">
<path d="M1 18.2613C6.47242 18.256 11.921 19.1181 17.2021 20.8247C17.9477 21.0663 18.6923 20.4075 18.6923 19.4875V18.2613M2.53846 0.875V1.79007C2.53846 2.03276 2.45742 2.26551 2.31316 2.43712C2.1689 2.60873 1.97324 2.70514 1.76923 2.70514H1M1 2.70514V2.2476C1 1.48993 1.51692 0.875 2.15385 0.875H19.4615M1 2.70514V13.686M19.4615 0.875V1.79007C19.4615 2.29519 19.8062 2.70514 20.2308 2.70514H21M19.4615 0.875H19.8462C20.4831 0.875 21 1.48993 21 2.2476V14.1435C21 14.9012 20.4831 15.5161 19.8462 15.5161H19.4615M1 13.686V14.1435C1 14.5075 1.12157 14.8567 1.33795 15.1141C1.55434 15.3715 1.84783 15.5161 2.15385 15.5161H2.53846M1 13.686H1.76923C1.97324 13.686 2.1689 13.7824 2.31316 13.954C2.45742 14.1256 2.53846 14.3583 2.53846 14.601V15.5161M19.4615 15.5161V14.601C19.4615 14.3583 19.5426 14.1256 19.6868 13.954C19.8311 13.7824 20.0268 13.686 20.2308 13.686H21M19.4615 15.5161H2.53846M14.0769 8.19555C14.0769 9.16632 13.7527 10.0973 13.1757 10.7838C12.5987 11.4702 11.8161 11.8558 11 11.8558C10.1839 11.8558 9.40132 11.4702 8.82429 10.7838C8.24725 10.0973 7.92308 9.16632 7.92308 8.19555C7.92308 7.22479 8.24725 6.29378 8.82429 5.60735C9.40132 4.92091 10.1839 4.53528 11 4.53528C11.8161 4.53528 12.5987 4.92091 13.1757 5.60735C13.7527 6.29378 14.0769 7.22479 14.0769 8.19555ZM17.1538 8.19555H17.1621V8.20531H17.1538V8.19555ZM4.84615 8.19555H4.85436V8.20531H4.84615V8.19555Z" stroke="#34A853" stroke-width="1.5" stroke-linecap="round" stroke-linejoin="round"/>
</svg>
