<svg width="27" height="28" viewBox="0 0 27 28" fill="none" xmlns="http://www.w3.org/2000/svg">
<g filter="url(#filter0_d_776_3561)">
<path d="M13.5 5.25V10.5H17.4375M21.375 10.5C21.375 11.5342 21.1713 12.5582 20.7756 13.5136C20.3798 14.4691 19.7997 15.3372 19.0685 16.0685C18.3372 16.7997 17.4691 17.3798 16.5136 17.7756C15.5582 18.1713 14.5342 18.375 13.5 18.375C12.4658 18.375 11.4418 18.1713 10.4864 17.7756C9.53093 17.3798 8.6628 16.7997 7.93153 16.0685C7.20027 15.3372 6.6202 14.4691 6.22445 13.5136C5.82869 12.5582 5.625 11.5342 5.625 10.5C5.625 8.41142 6.45469 6.40838 7.93153 4.93153C9.40838 3.45469 11.4114 2.625 13.5 2.625C15.5886 2.625 17.5916 3.45469 19.0685 4.93153C20.5453 6.40838 21.375 8.41142 21.375 10.5Z" stroke="#6A6A6A" stroke-width="1.5" stroke-linecap="round" stroke-linejoin="round"/>
</g>
<defs>
<filter id="filter0_d_776_3561" x="-1" y="0" width="29" height="29" filterUnits="userSpaceOnUse" color-interpolation-filters="sRGB">
<feFlood flood-opacity="0" result="BackgroundImageFix"/>
<feColorMatrix in="SourceAlpha" type="matrix" values="0 0 0 0 0 0 0 0 0 0 0 0 0 0 0 0 0 0 127 0" result="hardAlpha"/>
<feOffset dy="4"/>
<feGaussianBlur stdDeviation="2"/>
<feComposite in2="hardAlpha" operator="out"/>
<feColorMatrix type="matrix" values="0 0 0 0 0 0 0 0 0 0 0 0 0 0 0 0 0 0 0.25 0"/>
<feBlend mode="normal" in2="BackgroundImageFix" result="effect1_dropShadow_776_3561"/>
<feBlend mode="normal" in="SourceGraphic" in2="effect1_dropShadow_776_3561" result="shape"/>
</filter>
</defs>
</svg>
