<svg width="32" height="32" viewBox="0 0 32 32" fill="none" xmlns="http://www.w3.org/2000/svg">
<circle cx="16" cy="16" r="16" fill="#B0D6FF"/>
<circle cx="16.0019" cy="16.0004" r="13.9355" fill="white"/>
<path d="M15.9999 15.9998C16.402 15.9998 16.7464 15.8565 17.033 15.5699C17.3196 15.2833 17.4627 14.9391 17.4622 14.5375C17.4622 14.1353 17.3189 13.7909 17.0323 13.5043C16.7457 13.2177 16.4015 13.0746 15.9999 13.0751C15.5977 13.0751 15.2533 13.2184 14.9667 13.505C14.6801 13.7916 14.537 14.1358 14.5375 14.5375C14.5375 14.9396 14.6808 15.284 14.9674 15.5706C15.254 15.8572 15.5982 16.0003 15.9999 15.9998ZM15.9999 21.374C17.4866 20.0091 18.5895 18.769 19.3085 17.6538C20.0275 16.5385 20.387 15.5484 20.387 14.6837C20.387 13.3554 19.9634 12.2679 19.1162 11.4211C18.269 10.5744 17.2302 10.1508 15.9999 10.1504C14.769 10.1504 13.73 10.574 12.8828 11.4211C12.0356 12.2683 11.6123 13.3559 11.6128 14.6837C11.6128 15.5489 11.9723 16.5392 12.6913 17.6545C13.4102 18.7698 14.5131 20.0096 15.9999 21.374ZM15.9999 23.0375C15.9024 23.0375 15.8049 23.0192 15.7074 22.9826C15.6099 22.9461 15.5246 22.8973 15.4515 22.8364C13.6723 21.2643 12.3439 19.8049 11.4665 18.4581C10.5891 17.1112 10.1504 15.8531 10.1504 14.6837C10.1504 12.8557 10.7385 11.3995 11.9147 10.3149C13.091 9.23028 14.4527 8.68799 15.9999 8.68799C17.5475 8.68799 18.9095 9.23028 20.0857 10.3149C21.2619 11.3995 21.8498 12.8557 21.8493 14.6837C21.8493 15.8536 21.4106 17.1119 20.5332 18.4588C19.6558 19.8056 18.3275 21.2648 16.5482 22.8364C16.4751 22.8973 16.3898 22.9461 16.2923 22.9826C16.1948 23.0192 16.0973 23.0375 15.9999 23.0375Z" fill="#007BFF"/>
</svg>
