<svg width="31" height="31" viewBox="0 0 31 31" fill="none" xmlns="http://www.w3.org/2000/svg">
<circle cx="15.5" cy="15.5" r="15.5" fill="#B0D6FF"/>
<circle cx="15.5" cy="15.5" r="13.5" fill="white"/>
<path d="M17.4197 15.5822C17.2338 15.5822 17.0779 15.5192 16.9519 15.3932C16.8259 15.2673 16.7632 15.1115 16.7636 14.9261V12.3018C16.7636 12.1159 16.8266 11.9599 16.9526 11.834C17.0785 11.708 17.2342 11.6452 17.4197 11.6457C17.6056 11.6457 17.7615 11.7086 17.8875 11.8346C18.0135 11.9606 18.0762 12.1163 18.0758 12.3018V13.3515L20.8969 10.5303C21.0172 10.41 21.1703 10.3499 21.3562 10.3499C21.5421 10.3499 21.6952 10.41 21.8155 10.5303C21.9357 10.6506 21.9959 10.8037 21.9959 10.9896C21.9959 11.1755 21.9357 11.3286 21.8155 11.4488L18.9943 14.27H20.044C20.2299 14.27 20.3859 14.333 20.5118 14.459C20.6378 14.5849 20.7006 14.7406 20.7001 14.9261C20.7001 15.112 20.6371 15.2679 20.5112 15.3939C20.3852 15.5198 20.2295 15.5826 20.044 15.5822H17.4197ZM21.4546 22.143C20.044 22.143 18.6691 21.8285 17.3298 21.1996C15.9905 20.5706 14.8041 19.7396 13.7706 18.7064C12.737 17.6733 11.906 16.4869 11.2774 15.1472C10.6489 13.8075 10.3344 12.4325 10.334 11.0224C10.334 10.8256 10.3996 10.6615 10.5308 10.5303C10.662 10.3991 10.826 10.3335 11.0229 10.3335H13.68C13.8331 10.3335 13.9698 10.3827 14.0901 10.4811C14.2104 10.5795 14.2814 10.7053 14.3033 10.8584L14.7298 13.1547C14.7516 13.3077 14.7488 13.4473 14.7212 13.5732C14.6937 13.6992 14.6309 13.8112 14.5329 13.9092L12.9583 15.5166C13.4176 16.3039 13.9917 17.042 14.6805 17.7309C15.3694 18.4197 16.1294 19.0157 16.9604 19.5187L18.5022 17.9769C18.6007 17.8785 18.7292 17.8048 18.888 17.7558C19.0468 17.7068 19.2025 17.693 19.3551 17.7144L21.6186 18.1737C21.7717 18.2065 21.8975 18.2804 21.9959 18.3955C22.0943 18.5105 22.1435 18.6443 22.1435 18.797V21.4541C22.1435 21.651 22.0779 21.815 21.9467 21.9462C21.8155 22.0774 21.6514 22.143 21.4546 22.143ZM12.335 14.27L13.4176 13.1875L13.1223 11.6457H11.679C11.7336 12.094 11.8102 12.5368 11.9086 12.9742C12.007 13.4116 12.1492 13.8435 12.335 14.27ZM20.8313 20.798V19.3547L19.2895 19.0266L18.207 20.1092C18.6335 20.295 19.0654 20.4481 19.5028 20.5684C19.9402 20.6887 20.383 20.7652 20.8313 20.798Z" fill="#007BFF"/>
</svg>
