<svg width="23" height="33" viewBox="0 0 23 33" fill="none" xmlns="http://www.w3.org/2000/svg">
<path d="M2.875 16.5H11.5V18.5625H2.875V16.5ZM1.4375 11.3438H8.625V13.4062H1.4375V11.3438Z" fill="#007BFF"/>
<path d="M21.5043 17.1249L19.3481 9.90619C19.2927 9.72064 19.2006 9.56251 19.0832 9.45141C18.9658 9.34031 18.8282 9.28114 18.6875 9.28125H16.5313V7.21875C16.5313 6.94525 16.4556 6.68294 16.3208 6.48955C16.186 6.29615 16.0032 6.1875 15.8125 6.1875H4.31253V8.25H15.0938V21.1984C14.7663 21.4712 14.4796 21.8344 14.2504 22.267C14.0212 22.6996 13.854 23.193 13.7583 23.7188H9.24171C9.06677 22.7466 8.65074 21.8994 8.07158 21.3359C7.49243 20.7725 6.78992 20.5314 6.09575 20.6579C5.40157 20.7844 4.76337 21.2698 4.3008 22.0231C3.83822 22.7765 3.58301 23.746 3.58301 24.75C3.58301 25.754 3.83822 26.7235 4.3008 27.4769C4.76337 28.2302 5.40157 28.7156 6.09575 28.8421C6.78992 28.9686 7.49243 28.7275 8.07158 28.1641C8.65074 27.6006 9.06677 26.7534 9.24171 25.7812H13.7583C13.9147 26.6663 14.2723 27.4513 14.7745 28.012C15.2767 28.5727 15.8949 28.8772 16.5313 28.8772C17.1676 28.8772 17.7858 28.5727 18.2881 28.012C18.7903 27.4513 19.1479 26.6663 19.3042 25.7812H20.8438C21.0344 25.7812 21.2172 25.6726 21.352 25.4792C21.4868 25.2858 21.5625 25.0235 21.5625 24.75V17.5312C21.5626 17.3915 21.5428 17.2533 21.5043 17.1249ZM6.46878 26.8125C6.18447 26.8125 5.90654 26.6915 5.67014 26.4649C5.43375 26.2383 5.2495 25.9162 5.1407 25.5393C5.0319 25.1624 5.00343 24.7477 5.0589 24.3476C5.11436 23.9475 5.25127 23.58 5.45231 23.2916C5.65335 23.0031 5.90949 22.8067 6.18833 22.7271C6.46718 22.6475 6.75622 22.6884 7.01888 22.8445C7.28155 23.0006 7.50606 23.265 7.66401 23.6041C7.82197 23.9433 7.90628 24.3421 7.90628 24.75C7.9059 25.2968 7.75432 25.8211 7.48482 26.2078C7.21532 26.5945 6.84991 26.812 6.46878 26.8125ZM16.5313 11.3438H18.2132L19.7541 16.5H16.5313V11.3438ZM16.5313 26.8125C16.247 26.8125 15.969 26.6915 15.7326 26.4649C15.4962 26.2383 15.312 25.9162 15.2032 25.5393C15.0944 25.1624 15.0659 24.7477 15.1214 24.3476C15.1769 23.9475 15.3138 23.58 15.5148 23.2916C15.7158 23.0031 15.972 22.8067 16.2508 22.7271C16.5297 22.6475 16.8187 22.6884 17.0814 22.8445C17.3441 23.0006 17.5686 23.265 17.7265 23.6041C17.8845 23.9433 17.9688 24.3421 17.9688 24.75C17.9684 25.2968 17.8168 25.8211 17.5473 26.2078C17.2778 26.5945 16.9124 26.812 16.5313 26.8125ZM20.125 23.7188H19.3042C19.1459 22.8354 18.7877 22.0524 18.2859 21.4925C17.7841 20.9327 17.167 20.6275 16.5313 20.625V18.5625H20.125V23.7188Z" fill="#007BFF"/>
</svg>
