<svg width="29" height="24" viewBox="0 0 29 24" fill="none" xmlns="http://www.w3.org/2000/svg">
<path d="M19 5.99985L21.293 3.70685C21.4805 3.51938 21.7348 3.41406 22 3.41406C22.2652 3.41406 22.5195 3.51938 22.707 3.70685L25.293 6.29285C25.4805 6.48038 25.5858 6.73468 25.5858 6.99985C25.5858 7.26501 25.4805 7.51932 25.293 7.70685L23 9.99985M19 5.99985L9.293 15.7068C9.10545 15.8943 9.00006 16.1487 9 16.4138V18.9998C9 19.2651 9.10536 19.5194 9.29289 19.707C9.48043 19.8945 9.73478 19.9998 10 19.9998H12.586C12.8512 19.9998 13.1055 19.8944 13.293 19.7069L23 9.99985M19 5.99985L23 9.99985" stroke="#848484" stroke-width="2" stroke-linecap="round" stroke-linejoin="round"/>
<line y1="23.5" x2="23" y2="23.5" stroke="#B0B0B0"/>
</svg>
