<svg width="19" height="20" viewBox="0 0 19 20" fill="none" xmlns="http://www.w3.org/2000/svg">
<path d="M9.77913 7.68155H13.1643L12.7881 9.22701H9.77913V16.1816H8.27463V9.22701H5.26562V7.68155H8.27463V6.23501C8.27463 4.85723 8.41454 4.35728 8.67633 3.85346C8.93285 3.35568 9.32913 2.9486 9.81373 2.6851C10.3042 2.41619 10.7909 2.27246 12.1322 2.27246C12.5248 2.27246 12.8694 2.3111 13.1643 2.38837V3.81792H12.1322C11.1362 3.81792 10.833 3.87819 10.5239 4.04819C10.2952 4.17337 10.1252 4.34801 10.0033 4.58292C9.8378 4.90051 9.77913 5.21192 9.77913 6.23501V7.68155Z" fill="white"/>
</svg>
