<svg width="33" height="33" viewBox="0 0 33 33" fill="none" xmlns="http://www.w3.org/2000/svg">
<path d="M16.5 5.5C13.5826 5.5 10.7847 6.65893 8.72183 8.72183C6.65893 10.7847 5.5 13.5826 5.5 16.5H9.625C10.3543 16.5 11.0538 16.7897 11.5695 17.3055C12.0853 17.8212 12.375 18.5207 12.375 19.25V26.125C12.375 26.8543 12.0853 27.5538 11.5695 28.0695C11.0538 28.5853 10.3543 28.875 9.625 28.875H5.5C4.77065 28.875 4.07118 28.5853 3.55546 28.0695C3.03973 27.5538 2.75 26.8543 2.75 26.125V16.5C2.75 8.90588 8.90588 2.75 16.5 2.75C24.0941 2.75 30.25 8.90588 30.25 16.5V26.125C30.25 26.8543 29.9603 27.5538 29.4445 28.0695C28.9288 28.5853 28.2293 28.875 27.5 28.875H23.375C22.6457 28.875 21.9462 28.5853 21.4305 28.0695C20.9147 27.5538 20.625 26.8543 20.625 26.125V19.25C20.625 18.5207 20.9147 17.8212 21.4305 17.3055C21.9462 16.7897 22.6457 16.5 23.375 16.5H27.5C27.5 13.5826 26.3411 10.7847 24.2782 8.72183C22.2153 6.65893 19.4174 5.5 16.5 5.5ZM5.5 19.25V26.125H9.625V19.25H5.5ZM23.375 19.25V26.125H27.5V19.25H23.375Z" fill="#007BFF"/>
</svg>
