<svg width="16" height="15" viewBox="0 0 16 15" fill="none" xmlns="http://www.w3.org/2000/svg">
<path d="M2 13.2857H5V8.14286H11V13.2857H14V5.57143L8 1.71429L2 5.57143V13.2857ZM2 15C1.45 15 0.979333 14.8323 0.588 14.4969C0.196 14.1609 0 13.7571 0 13.2857V5.57143C0 5.3 0.0709998 5.04286 0.213 4.8C0.354333 4.55714 0.55 4.35714 0.8 4.2L6.8 0.342857C6.98333 0.228572 7.175 0.142857 7.375 0.0857142C7.575 0.0285713 7.78333 0 8 0C8.21667 0 8.425 0.0285713 8.625 0.0857142C8.825 0.142857 9.01667 0.228572 9.2 0.342857L15.2 4.2C15.45 4.35714 15.646 4.55714 15.788 4.8C15.9293 5.04286 16 5.3 16 5.57143V13.2857C16 13.7571 15.8043 14.1609 15.413 14.4969C15.021 14.8323 14.55 15 14 15H9V9.85714H7V15H2Z" fill="#007BFF"/>
</svg>
