<svg width="41" height="36" viewBox="0 0 41 36" fill="none" xmlns="http://www.w3.org/2000/svg">
<path d="M18.2795 25.9125C18.6212 25.6125 18.7852 25.2499 18.7715 24.8249C18.7567 24.4 18.5785 24.0375 18.2368 23.7375L13.4107 19.5H32.4587C32.9427 19.5 33.3487 19.356 33.6767 19.068C34.0036 18.781 34.167 18.425 34.167 18C34.167 17.575 34.0036 17.2185 33.6767 16.9305C33.3487 16.6435 32.9427 16.5 32.4587 16.5H13.4107L18.2795 12.225C18.6212 11.925 18.792 11.5685 18.792 11.1555C18.792 10.7435 18.6212 10.3875 18.2795 10.0875C17.9378 9.78745 17.5318 9.63745 17.0615 9.63745C16.5922 9.63745 16.1868 9.78745 15.8451 10.0875L8.0295 16.95C7.85866 17.1 7.73737 17.2625 7.66562 17.4375C7.59501 17.6125 7.5597 17.8 7.5597 18C7.5597 18.2 7.59501 18.3875 7.66562 18.5625C7.73737 18.7375 7.85866 18.9 8.0295 19.05L15.8878 25.9499C16.201 26.2249 16.5922 26.3625 17.0615 26.3625C17.5318 26.3625 17.9378 26.2125 18.2795 25.9125Z" fill="black"/>
</svg>
