<svg width="28" height="34" viewBox="0 0 28 34" fill="none" xmlns="http://www.w3.org/2000/svg">
<g clip-path="url(#clip0_671_4605)">
<path d="M8.20312 15.4014H19.8188V16.9482H8.20312V15.4014ZM8.20312 22.2076H15.3125V23.7545H8.20312V22.2076Z" fill="#007BFF"/>
<path d="M22.3781 32.1336H5.62188C5.27188 32.1336 4.94375 32.0563 4.61563 31.9016C4.30938 31.7469 4.025 31.5406 3.80625 31.257C3.56562 30.9734 3.39062 30.6641 3.25937 30.3031C3.12812 29.9164 3.0625 29.5297 3.0625 29.1172V8.56953C3.0625 8.15703 3.12812 7.77031 3.25937 7.38359C3.39062 7.02266 3.56562 6.6875 3.80625 6.42969C4.04687 6.14609 4.30938 5.93984 4.61563 5.78516C4.94375 5.63047 5.27188 5.55313 5.62188 5.55313H8.15937V7.07422H5.62188C4.92188 7.07422 4.33125 7.74453 4.33125 8.59531V29.143C4.33125 29.968 4.9 30.6641 5.62188 30.6641H22.3562C23.0562 30.6641 23.6469 29.9938 23.6469 29.143V8.56953C23.6469 7.74453 23.0781 7.04844 22.3562 7.04844H19.8406V5.52734H22.3781C22.7281 5.52734 23.0563 5.60469 23.3844 5.75937C23.6906 5.91406 23.975 6.12031 24.1937 6.40391C24.4344 6.6875 24.6094 6.99688 24.7406 7.35781C24.8719 7.74453 24.9375 8.13125 24.9375 8.54375V29.0914C24.9375 29.5039 24.8719 29.8906 24.7406 30.2773C24.6094 30.6383 24.4344 30.9734 24.1937 31.2313C23.9531 31.5148 23.6906 31.7211 23.3844 31.8758C23.0563 32.0563 22.7281 32.1336 22.3781 32.1336Z" fill="#007BFF"/>
<path d="M20.4309 10.0908H7.56836V5.14082C7.56836 4.08379 8.29023 3.23301 9.18711 3.23301H10.8496C11.4402 1.84082 12.6652 0.938477 14.0215 0.938477C15.3777 0.938477 16.6027 1.84082 17.1934 3.23301H18.8559C19.7527 3.23301 20.4746 4.08379 20.4746 5.14082L20.4309 10.0908ZM8.85898 8.56973H19.1621V5.14082C19.1621 4.93457 19.009 4.7541 18.834 4.7541H16.2746L16.1215 4.23848C15.8152 3.18145 14.9621 2.45957 13.9996 2.45957C13.0371 2.45957 12.184 3.18145 11.8777 4.23848L11.7246 4.7541H9.16524C8.99024 4.7541 8.83711 4.93457 8.83711 5.14082V8.56973H8.85898Z" fill="#007BFF"/>
</g>
<defs>
<clipPath id="clip0_671_4605">
<rect width="28" height="33" fill="white" transform="translate(0 0.5)"/>
</clipPath>
</defs>
</svg>
