<svg width="20" height="22" viewBox="0 0 20 22" fill="none" xmlns="http://www.w3.org/2000/svg">
<path d="M6.125 15.6562C6.25919 15.7596 6.42436 15.8147 6.59375 15.8125C6.71504 15.8125 6.83465 15.7843 6.94314 15.73C7.05162 15.6758 7.14598 15.597 7.21875 15.5C7.69176 14.8693 8.30512 14.3574 9.01024 14.0049C9.71537 13.6523 10.4929 13.4688 11.2812 13.4688C12.0696 13.4687 12.8471 13.6523 13.5523 14.0049C14.2574 14.3574 14.8707 14.8693 15.3438 15.5C15.4696 15.6636 15.6545 15.7715 15.8588 15.8007C16.0632 15.8299 16.2708 15.7781 16.4375 15.6562C16.5196 15.5947 16.5887 15.5176 16.641 15.4293C16.6933 15.341 16.7276 15.2433 16.7421 15.1417C16.7567 15.0402 16.751 14.9367 16.7256 14.8374C16.7001 14.738 16.6553 14.6446 16.5937 14.5625C15.9024 13.6344 14.9798 12.9037 13.918 12.4434C14.4989 11.9119 14.9057 11.2173 15.0849 10.4506C15.2642 9.68386 15.2076 8.88089 14.9225 8.14694C14.6374 7.41299 14.1372 6.78232 13.4874 6.33764C12.8376 5.89295 12.0686 5.65501 11.2812 5.65501C10.4939 5.65501 9.72489 5.89295 9.07511 6.33764C8.42533 6.78232 7.92511 7.41299 7.64003 8.14694C7.35495 8.88089 7.29832 9.68386 7.47758 10.4506C7.65683 11.2173 8.06359 11.9119 8.64453 12.4434C7.58273 12.9037 6.66014 13.6344 5.96875 14.5625C5.84443 14.7283 5.79105 14.9366 5.82035 15.1417C5.84965 15.3469 5.95924 15.5319 6.125 15.6562ZM8.9375 9.5625C8.9375 9.09895 9.07496 8.64581 9.33249 8.26038C9.59003 7.87495 9.95607 7.57455 10.3843 7.39716C10.8126 7.21976 11.2839 7.17335 11.7385 7.26378C12.1931 7.35422 12.6108 7.57744 12.9385 7.90522C13.2663 8.233 13.4895 8.65061 13.58 9.10526C13.6704 9.5599 13.624 10.0311 13.4466 10.4594C13.2692 10.8877 12.9688 11.2537 12.5834 11.5113C12.1979 11.7688 11.7448 11.9062 11.2812 11.9062C10.6604 11.9037 10.0658 11.6559 9.62681 11.2169C9.18783 10.778 8.94007 10.1833 8.9375 9.5625ZM18.3125 0.96875H4.25C3.8356 0.96875 3.43817 1.13337 3.14515 1.4264C2.85212 1.71942 2.6875 2.11685 2.6875 2.53125V4.48438H1.125C0.9178 4.48438 0.719086 4.56669 0.572573 4.7132C0.42606 4.85971 0.34375 5.05842 0.34375 5.26562C0.34375 5.47283 0.42606 5.67154 0.572573 5.81805C0.719086 5.96456 0.9178 6.04688 1.125 6.04688H2.6875V8.39062H1.125C0.9178 8.39062 0.719086 8.47294 0.572573 8.61945C0.42606 8.76596 0.34375 8.96467 0.34375 9.17188C0.34375 9.37908 0.42606 9.57779 0.572573 9.7243C0.719086 9.87081 0.9178 9.95312 1.125 9.95312H2.6875V12.2969H1.125C0.9178 12.2969 0.719086 12.3792 0.572573 12.5257C0.42606 12.6722 0.34375 12.8709 0.34375 13.0781C0.34375 13.2853 0.42606 13.484 0.572573 13.6306C0.719086 13.7771 0.9178 13.8594 1.125 13.8594H2.6875V16.2031H1.125C0.9178 16.2031 0.719086 16.2854 0.572573 16.4319C0.42606 16.5785 0.34375 16.7772 0.34375 16.9844C0.34375 17.1916 0.42606 17.3903 0.572573 17.5368C0.719086 17.6833 0.9178 17.7656 1.125 17.7656H2.6875V19.7188C2.6875 20.1332 2.85212 20.5306 3.14515 20.8236C3.43817 21.1166 3.8356 21.2812 4.25 21.2812H18.3125C18.7269 21.2812 19.1243 21.1166 19.4174 20.8236C19.7104 20.5306 19.875 20.1332 19.875 19.7188V2.53125C19.875 2.11685 19.7104 1.71942 19.4174 1.4264C19.1243 1.13337 18.7269 0.96875 18.3125 0.96875ZM18.3125 19.7188H4.25V2.53125H18.3125V19.7188Z" fill="#AE2A3F" fill-opacity="0.55"/>
</svg>
