<svg width="31" height="38" viewBox="0 0 31 38" fill="none" xmlns="http://www.w3.org/2000/svg">
<path d="M26.8826 0.00038574H13.0677C10.8262 0.00038574 8.99625 1.84296 8.99625 4.09986V15.7071L0.350414 20.9578C0.304753 21.0037 0.167477 21.096 0.0758652 21.2342C-0.0157469 21.3724 -0.0157472 21.5566 0.0302029 21.6026V30.3539C0.0302029 30.5841 0.167478 30.8146 0.350416 30.9528L12.2443 37.954C12.3359 38 12.4273 38 12.6102 38C12.7475 38 12.8847 37.954 12.9761 37.9078L14.806 36.8023H26.9286C29.17 36.8023 31 34.9597 31 32.7028L30.9997 4.09918C30.9541 1.84228 29.1241 0 26.8826 0L26.8826 0.00038574ZM22.2167 1.382L22.0338 1.84265H18.1453L17.9624 1.382H22.2167ZM13.2504 28.9722L16.4525 26.9917V30.0316C16.4525 30.2618 16.5898 30.4923 16.8184 30.6305C16.91 30.6765 17.047 30.7227 17.1386 30.7227C17.2758 30.7227 17.3672 30.6768 17.5044 30.6305L19.7915 29.2486C20.0201 29.1104 20.1118 28.8802 20.1118 28.6497V24.7807L23.3139 22.8002V29.9856L13.2499 36.1578L13.2504 28.9722ZM7.85244 18.0097L18.1907 24.3201L17.1844 24.9649L6.7998 18.6083L7.85244 18.0097ZM17.8246 26.1622L18.7395 25.6096V28.2812L17.8246 28.8338V26.1622ZM19.5172 23.4906L9.17895 17.1802L12.3811 15.2456L22.7193 21.556L19.5172 23.4906ZM5.47359 19.4374L15.8118 25.7478L12.5181 27.7745L1.9968 21.5563L5.47359 19.4374ZM1.35652 22.7535L11.8778 28.9717V36.2031L1.35652 29.9849V22.7535ZM29.5812 32.7485C29.5812 34.2686 28.3917 35.466 26.8823 35.466H17.0013L24.3664 30.9522C24.5494 30.8139 24.6867 30.5838 24.6867 30.3533L24.6864 21.5561C24.6864 21.5101 24.6864 21.3259 24.5947 21.2336C24.5491 21.0954 24.4118 21.0035 24.3662 20.9572C20.4777 18.6081 16.5893 16.2129 12.7009 13.864C12.4723 13.7258 12.1977 13.7258 11.9689 13.864L10.3222 14.8773L10.3225 4.09915C10.3225 2.57902 11.512 1.38158 13.0214 1.38158H16.4065L17.0012 2.80947C17.0928 3.08591 17.3671 3.22413 17.6416 3.22413H22.4448C22.7193 3.22413 22.9936 3.03993 23.0852 2.80947L23.634 1.42755V1.38158H26.8361C28.3458 1.38158 29.5351 2.57931 29.5351 4.09914L29.5812 32.7485Z" fill="#007BFF"/>
</svg>
