<svg width="14" height="15" viewBox="0 0 14 15" fill="none" xmlns="http://www.w3.org/2000/svg">
<path d="M9.73168 9.30801L9.73171 9.30802L12.3115 9.95312C12.8267 10.0817 13.1875 10.5444 13.1875 11.0747V11.875C13.1875 12.3557 12.9965 12.8167 12.6566 13.1566C12.3167 13.4965 11.8557 13.6875 11.375 13.6875H10.0625C4.95402 13.6875 0.8125 9.54598 0.8125 4.4375V3.125C0.8125 2.6443 1.00346 2.18328 1.34337 1.84337C1.68328 1.50346 2.1443 1.3125 2.625 1.3125H3.42533H3.4255C3.68327 1.31259 3.93362 1.3988 4.13678 1.55746C4.33993 1.71611 4.48425 1.9381 4.5468 2.18817L4.54681 2.18821L5.19192 4.76806L5.19198 4.76829L4.70692 4.88958C4.77108 5.14567 4.67542 5.41575 4.46367 5.57383L9.73168 9.30801ZM9.73168 9.30801C9.27957 9.19498 8.8048 9.36447 8.5262 9.73628C8.52619 9.73631 8.52617 9.73633 8.52615 9.73635C8.52607 9.73646 8.52599 9.73657 8.5259 9.73669L7.96037 10.4905L7.96033 10.4906C7.91633 10.5492 7.85874 10.5546 7.82691 10.5429C6.93999 10.2168 6.13454 9.70185 5.46634 9.03366C4.79815 8.36546 4.28317 7.56001 3.95708 6.67309C3.94539 6.64126 3.95075 6.58367 4.00942 6.53967L4.00947 6.53963L4.76278 5.97449C4.76296 5.97436 4.76313 5.97423 4.7633 5.9741L9.73168 9.30801Z" stroke="#848484" stroke-linecap="round" stroke-linejoin="round"/>
</svg>
