<svg width="24" height="25" viewBox="0 0 24 25" fill="none" xmlns="http://www.w3.org/2000/svg">
<g clip-path="url(#clip0_627_3527)">
<path d="M12.0004 2.375C13.0612 2.375 14.0787 2.79643 14.8288 3.54657C15.5789 4.29672 16.0004 5.31413 16.0004 6.375H18.0354C18.5536 6.37493 19.0515 6.57599 19.4244 6.93581C19.7973 7.29564 20.016 7.78614 20.0344 8.304L20.4624 20.304C20.4719 20.5724 20.4273 20.8399 20.3312 21.0907C20.2351 21.3415 20.0894 21.5703 19.903 21.7636C19.7165 21.9569 19.493 22.1106 19.2459 22.2157C18.9987 22.3207 18.7329 22.3749 18.4644 22.375H5.53637C5.26781 22.3749 5.00202 22.3207 4.75486 22.2157C4.5077 22.1106 4.28422 21.9569 4.09776 21.7636C3.91129 21.5703 3.76567 21.3415 3.66956 21.0907C3.57345 20.8399 3.52884 20.5724 3.53837 20.304L3.96637 8.304C3.98477 7.78614 4.20344 7.29564 4.57632 6.93581C4.9492 6.57599 5.44719 6.37493 5.96537 6.375H8.00037C8.00037 5.31413 8.4218 4.29672 9.17194 3.54657C9.92209 2.79643 10.9395 2.375 12.0004 2.375ZM8.00037 8.375H5.96537L5.53637 20.375H18.4644L18.0354 8.375H16.0004V9.375C16.0001 9.62988 15.9025 9.87503 15.7275 10.0604C15.5526 10.2457 15.3134 10.3572 15.059 10.3722C14.8045 10.3871 14.554 10.3043 14.3585 10.1407C14.1631 9.97715 14.0375 9.7451 14.0074 9.492L14.0004 9.375V8.375H10.0004V9.375C10.0001 9.62988 9.90249 9.87503 9.72752 10.0604C9.55255 10.2457 9.31342 10.3572 9.05898 10.3722C8.80453 10.3871 8.55399 10.3043 8.35854 10.1407C8.16308 9.97715 8.03747 9.7451 8.00737 9.492L8.00037 9.375V8.375ZM12.0004 4.375C11.4958 4.37484 11.0098 4.56541 10.6398 4.9085C10.2698 5.25159 10.0432 5.72184 10.0054 6.225L10.0004 6.375H14.0004C14.0004 5.84457 13.7897 5.33586 13.4146 4.96079C13.0395 4.58571 12.5308 4.375 12.0004 4.375Z" fill="#007BFF"/>
</g>
<defs>
<clipPath id="clip0_627_3527">
<rect width="24" height="24" fill="white" transform="translate(0 0.375)"/>
</clipPath>
</defs>
</svg>
