<svg width="28" height="30" viewBox="0 0 28 30" fill="none" xmlns="http://www.w3.org/2000/svg">
<path d="M6.01978 1V4.45697M21.3323 1V4.45697M0.551025 25.1988V7.91393C0.551025 6.99709 0.896727 6.1178 1.51208 5.46949C2.12743 4.82118 2.96203 4.45697 3.83228 4.45697H23.5198C24.39 4.45697 25.2246 4.82118 25.84 5.46949C26.4553 6.1178 26.801 6.99709 26.801 7.91393V25.1988M0.551025 25.1988C0.551025 26.1156 0.896727 26.9949 1.51208 27.6432C2.12743 28.2915 2.96203 28.6557 3.83228 28.6557H23.5198C24.39 28.6557 25.2246 28.2915 25.84 27.6432C26.4553 26.9949 26.801 26.1156 26.801 25.1988M0.551025 25.1988V13.6755C0.551025 12.7587 0.896727 11.8794 1.51208 11.2311C2.12743 10.5828 2.96203 10.2186 3.83228 10.2186H23.5198C24.39 10.2186 25.2246 10.5828 25.84 11.2311C26.4553 11.8794 26.801 12.7587 26.801 13.6755V25.1988M13.676 15.9802H13.6877V15.9925H13.676V15.9802ZM13.676 19.4372H13.6877V19.4494H13.676V19.4372ZM13.676 22.8941H13.6877V22.9064H13.676V22.8941ZM10.3948 19.4372H10.4064V19.4494H10.3948V19.4372ZM10.3948 22.8941H10.4064V22.9064H10.3948V22.8941ZM7.11353 19.4372H7.12519V19.4494H7.11353V19.4372ZM7.11353 22.8941H7.12519V22.9064H7.11353V22.8941ZM16.9573 15.9802H16.9689V15.9925H16.9573V15.9802ZM16.9573 19.4372H16.9689V19.4494H16.9573V19.4372ZM16.9573 22.8941H16.9689V22.9064H16.9573V22.8941ZM20.2385 15.9802H20.2502V15.9925H20.2385V15.9802ZM20.2385 19.4372H20.2502V19.4494H20.2385V19.4372Z" stroke="white" stroke-linecap="round" stroke-linejoin="round"/>
</svg>
