<svg width="32" height="29" viewBox="0 0 32 29" fill="none" xmlns="http://www.w3.org/2000/svg">
<path d="M8.06939 13.375C9.26806 13.375 10.3492 12.706 11.0899 11.755C12.2443 10.2694 13.6935 9.04327 15.3447 8.155C16.4199 7.579 17.3524 6.721 17.803 5.5825C18.1195 4.78488 18.282 3.93363 18.2818 3.0745V2.125C18.2818 1.82663 18.3994 1.54048 18.6085 1.3295C18.8177 1.11853 19.1014 1 19.3972 1C20.2847 1 21.1358 1.35558 21.7633 1.98851C22.3908 2.62145 22.7434 3.47989 22.7434 4.375C22.7434 6.103 22.3567 7.7395 21.6682 9.202C21.2726 10.039 21.8273 11.125 22.7464 11.125H27.3953C28.9211 11.125 30.2878 12.166 30.4499 13.6975C30.5169 14.3305 30.5511 14.9725 30.5511 15.625C30.5572 19.7295 29.1666 23.7118 26.6115 26.9065C26.0345 27.6295 25.1437 28 24.2246 28H18.2521C17.5338 28 16.8185 27.883 16.1358 27.655L11.5048 26.095C10.8223 25.8661 10.1077 25.7496 9.38852 25.75H6.98524M6.98524 25.75C7.10868 26.0575 7.24252 26.3575 7.38678 26.653C7.67975 27.253 7.27078 28 6.60899 28H5.25863C3.93653 28 2.71109 27.223 2.32591 25.948C1.81082 24.2429 1.5497 22.47 1.55109 20.6875C1.55109 18.358 1.98981 16.1335 2.78694 14.0905C3.24201 12.9295 4.40201 12.25 5.64083 12.25H7.20683C7.90878 12.25 8.31478 13.084 7.95042 13.69C6.68021 15.7989 6.01028 18.2199 6.01411 20.6875C6.01411 22.4785 6.35914 24.187 6.98673 25.75H6.98524ZM19.3972 11.125H22.7434" stroke="white" stroke-width="1.5" stroke-linecap="round" stroke-linejoin="round"/>
</svg>
