<svg width="39" height="38" viewBox="0 0 39 38" fill="none" xmlns="http://www.w3.org/2000/svg">
<path d="M35.7207 20.2904V27.0538H3.25644V5.41092H16.7832V2.70557H3.25644C2.53894 2.70557 1.85082 2.99059 1.34347 3.49795C0.836114 4.0053 0.551086 4.69342 0.551086 5.41092V27.0538C0.551086 27.7713 0.836114 28.4594 1.34347 28.9668C1.85082 29.4741 2.53894 29.7591 3.25644 29.7591H14.0779V35.1699H8.66716V37.8752H30.31V35.1699H24.8993V29.7591H35.7207C36.4382 29.7591 37.1264 29.4741 37.6337 28.9668C38.1411 28.4594 38.4261 27.7713 38.4261 27.0538V20.2904H35.7207ZM22.1939 35.1699H16.7832V29.7591H22.1939V35.1699Z" fill="white"/>
<path d="M38.4261 10.8214V8.11607H35.5841C35.4097 7.26932 35.0735 6.46419 34.5939 5.74483L36.6094 3.72933L34.6968 1.81665L32.6813 3.83214C31.9619 3.35263 31.1568 3.01643 30.31 2.84198V0H27.6047V2.84198C26.7579 3.01643 25.9528 3.35263 25.2334 3.83214L23.2179 1.81665L21.3052 3.72933L23.3207 5.74483C22.8412 6.46419 22.505 7.26932 22.3306 8.11607H19.4886V10.8214H22.3306C22.505 11.6682 22.8412 12.4733 23.3207 13.1927L21.3052 15.2082L23.2179 17.1209L25.2334 15.1054C25.9528 15.5849 26.7579 15.9211 27.6047 16.0955V18.9375H30.31V16.0955C31.1568 15.9211 31.9619 15.5849 32.6813 15.1054L34.6968 17.1209L36.6094 15.2082L34.5939 13.1927C35.0735 12.4733 35.4097 11.6682 35.5841 10.8214H38.4261ZM28.9573 13.5268C28.1547 13.5268 27.3702 13.2888 26.7028 12.8429C26.0355 12.397 25.5153 11.7632 25.2082 11.0217C24.9011 10.2802 24.8207 9.46425 24.9773 8.67707C25.1339 7.88988 25.5203 7.16681 26.0879 6.59929C26.6554 6.03176 27.3785 5.64527 28.1657 5.48869C28.9528 5.33211 29.7688 5.41247 30.5103 5.71961C31.2518 6.02676 31.8856 6.54689 32.3315 7.21423C32.7774 7.88157 33.0154 8.66615 33.0154 9.46875C33.0143 10.5447 32.5864 11.5762 31.8256 12.337C31.0648 13.0978 30.0333 13.5257 28.9573 13.5268Z" fill="white"/>
</svg>
