<svg width="49" height="28" viewBox="0 0 49 28" fill="none" xmlns="http://www.w3.org/2000/svg">
<path fill-rule="evenodd" clip-rule="evenodd" d="M28.4773 20.0513C30.6065 19.0619 32.3412 17.354 33.3924 15.212C34.4437 13.0699 34.748 10.6231 34.2549 8.27884C33.7617 5.93454 32.5007 3.83423 30.682 2.32799C28.8632 0.82153 26.5964 0 24.2591 0C21.9218 0 19.655 0.82153 17.8363 2.32799C16.0175 3.83423 14.7565 5.93454 14.2634 8.27884C13.7702 10.6231 14.0746 13.0699 15.1258 15.212C16.1771 17.354 17.9117 19.0619 20.0409 20.0513C16.1836 21.0775 12.806 23.4743 10.5088 26.8155C10.4846 26.8525 10.4637 26.8915 10.4463 26.9317C10.424 26.9834 10.4075 27.0372 10.3968 27.0923C10.3786 27.1857 10.3773 27.2825 10.394 27.3778C10.428 27.5735 10.5346 27.748 10.6914 27.8647C10.8145 27.9526 10.9615 27.9985 11.1114 27.9958C11.1747 27.9947 11.2374 27.9854 11.2981 27.9684C11.3501 27.954 11.4007 27.9339 11.4489 27.9085C11.5534 27.8532 11.6441 27.7742 11.714 27.6772C13.1296 25.6127 15.0083 23.9279 17.1917 22.765C19.3751 21.6019 21.7991 20.9947 24.2591 20.9947C26.7192 20.9947 29.1431 21.6019 31.3265 22.765C33.5099 23.9279 35.3886 25.6127 36.8042 27.6772C36.8594 27.7586 36.9296 27.8278 37.0108 27.8812C37.0431 27.9024 37.0768 27.9208 37.1118 27.9365C37.1648 27.9602 37.2204 27.9778 37.2777 27.9884C37.3726 28.0057 37.47 28.0036 37.5642 27.9824C37.6585 27.9612 37.7477 27.9212 37.8268 27.8647C37.9059 27.8081 37.9734 27.7361 38.0254 27.6527C38.0375 27.6334 38.0486 27.6137 38.0588 27.5934C38.0928 27.526 38.1168 27.4538 38.1299 27.3788C38.1468 27.2814 38.1449 27.1814 38.1243 27.0849C38.1036 26.9881 38.0646 26.8966 38.0094 26.8155C35.7123 23.4743 32.3347 21.0775 28.4773 20.0513ZM15.494 10.4954C15.494 8.7166 16.0081 6.9776 16.9712 5.49868C17.9343 4.01955 19.3032 2.86678 20.9049 2.18609C22.5065 1.5054 24.2689 1.32728 25.9691 1.6744C27.6694 2.02132 29.2312 2.878 30.457 4.13582C31.6828 5.39363 32.5176 6.99603 32.8558 8.74075C33.194 10.4855 33.0205 12.2937 32.3571 13.9372C31.6936 15.5805 30.5702 16.9851 29.1287 17.9735C27.6873 18.9617 25.9927 19.4893 24.2591 19.4893C21.9345 19.4893 19.705 18.5415 18.0613 16.855C16.4175 15.1683 15.494 12.8806 15.494 10.4954ZM0.817159 27.8903C0.950229 27.9835 1.11313 28.0191 1.27108 27.9892C1.42903 27.9593 1.5695 27.8668 1.6624 27.7308C2.85738 25.9736 4.44126 24.5396 6.28108 23.5488C8.12087 22.5583 10.1629 22.0403 12.2356 22.0383C12.3987 22.0383 12.555 21.971 12.6703 21.8516C12.7856 21.7319 12.8504 21.5697 12.8504 21.4004C12.8504 21.2312 12.7856 21.069 12.6703 20.9495C12.555 20.8299 12.3987 20.7625 12.2356 20.7625C10.2792 20.7625 8.40295 19.9562 7.01954 18.521C5.63614 17.0854 4.85897 15.1387 4.85897 13.1087C4.85897 11.0789 5.63614 9.13213 7.01954 7.69663C8.40295 6.26133 10.2792 5.45484 12.2356 5.45484C12.9112 5.45399 13.5836 5.55057 14.2335 5.74181C14.2876 5.75706 14.343 5.76426 14.3981 5.76384C14.5027 5.7632 14.6064 5.73482 14.6988 5.67997C14.7481 5.65074 14.7928 5.61495 14.8319 5.57365C14.9048 5.49677 14.9585 5.40126 14.9865 5.29536C15.0295 5.13483 15.0102 4.96307 14.9326 4.81693C14.8948 4.74577 14.8446 4.68329 14.7852 4.63267C14.7229 4.5793 14.6504 4.53864 14.5716 4.51407C12.4806 3.89353 10.2406 4.11718 8.30218 5.14054C6.36373 6.1637 4.87056 7.91053 4.12293 10.0297C3.37532 12.1489 3.42867 14.483 4.27229 16.563C5.11591 18.6429 6.68723 20.3142 8.67024 21.241C5.43011 22.119 2.59384 24.1581 0.663479 26.9974C0.640607 27.0311 0.620973 27.0669 0.604834 27.1043C0.587898 27.1435 0.574792 27.1844 0.565746 27.2265C0.54809 27.3089 0.546369 27.3941 0.560657 27.4771C0.574972 27.5601 0.604988 27.6395 0.649011 27.7103C0.65947 27.7272 0.670675 27.7435 0.682573 27.7592C0.699946 27.7821 0.718783 27.8037 0.738983 27.824C0.763191 27.8481 0.789327 27.8704 0.817159 27.8903ZM47.8599 27.9903C48.0115 28.0184 48.1679 27.9848 48.2956 27.8962C48.3599 27.8507 48.4148 27.7927 48.4571 27.7253C48.4993 27.658 48.5282 27.5826 48.5419 27.5038C48.5556 27.4248 48.554 27.3439 48.537 27.2657C48.5201 27.1874 48.4882 27.1135 48.4432 27.048C46.59 24.3507 43.8672 22.4134 40.7567 21.5794C42.6604 20.699 44.1688 19.1112 44.9787 17.1352C45.7886 15.1592 45.8398 12.9418 45.1221 10.9285C44.4044 8.91547 42.971 7.25611 41.11 6.28399C39.2491 5.31188 37.0988 5.09925 35.0914 5.68887C34.9931 5.71936 34.905 5.77528 34.8352 5.85025C34.8002 5.88774 34.7697 5.93009 34.7449 5.97648C34.7061 6.0487 34.6825 6.12769 34.6745 6.20817C34.6673 6.2823 34.6733 6.35791 34.6931 6.43119C34.7345 6.58558 34.8338 6.71689 34.9693 6.79631C35.057 6.84778 35.1552 6.87489 35.2545 6.87616C35.3086 6.877 35.3629 6.87001 35.416 6.85519C36.0399 6.67347 36.6854 6.58177 37.3339 6.58262C39.2121 6.58262 41.0133 7.34866 42.3414 8.71216C43.6695 10.0759 44.4156 11.9254 44.4156 13.8538C44.4156 15.7821 43.6695 17.6317 42.3414 18.9952C41.0133 20.3589 39.2121 21.1249 37.3339 21.1249C37.2259 21.1249 37.1209 21.1554 37.0298 21.2115C36.9889 21.2367 36.9509 21.2672 36.9166 21.3024C36.806 21.4161 36.7438 21.5701 36.7438 21.7308C36.7438 21.8916 36.806 22.0458 36.9166 22.1593C37.0273 22.273 37.1774 22.3368 37.3339 22.3368C39.3238 22.3387 41.2841 22.8309 43.0503 23.7718C44.8165 24.713 46.3371 26.0753 47.4842 27.7448C47.5734 27.8738 47.7083 27.9619 47.8599 27.9903Z" fill="white"/>
</svg>
