<svg width="43" height="38" viewBox="0 0 43 38" fill="none" xmlns="http://www.w3.org/2000/svg">
<path d="M5.375 19H21.5V21.375H5.375V19ZM2.6875 13.0625H16.125V15.4375H2.6875V13.0625Z" fill="#007BFF"/>
<path d="M40.2033 19.7196L36.172 11.4071C36.0686 11.1935 35.8964 11.0114 35.6769 10.8834C35.4573 10.7555 35.2001 10.6874 34.9371 10.6875H30.9059V8.3125C30.9059 7.99756 30.7643 7.69551 30.5123 7.47281C30.2603 7.25011 29.9185 7.125 29.5621 7.125H8.06213V9.5H28.2184V24.4102C27.6061 24.7245 27.0702 25.1427 26.6417 25.6408C26.2132 26.1389 25.9005 26.7071 25.7217 27.3125H17.2776C16.9505 26.1931 16.1727 25.2175 15.0899 24.5687C14.0072 23.9198 12.6938 23.6422 11.396 23.7879C10.0982 23.9335 8.90502 24.4925 8.04019 25.36C7.17537 26.2275 6.69824 27.3439 6.69824 28.5C6.69824 29.6561 7.17537 30.7725 8.04019 31.64C8.90502 32.5075 10.0982 33.0665 11.396 33.2121C12.6938 33.3578 14.0072 33.0802 15.0899 32.4313C16.1727 31.7825 16.9505 30.8069 17.2776 29.6875H25.7217C26.014 30.7067 26.6825 31.6106 27.6215 32.2563C28.5604 32.902 29.7162 33.2525 30.9059 33.2525C32.0956 33.2525 33.2514 32.902 34.1903 32.2563C35.1292 31.6106 35.7978 30.7067 36.0901 29.6875H38.9684C39.3248 29.6875 39.6665 29.5624 39.9186 29.3397C40.1706 29.117 40.3121 28.8149 40.3121 28.5V20.1875C40.3122 20.0266 40.2752 19.8674 40.2033 19.7196ZM12.0934 30.875C11.5618 30.875 11.0422 30.7357 10.6003 30.4747C10.1583 30.2138 9.81386 29.8428 9.61045 29.4089C9.40704 28.9749 9.35382 28.4974 9.45752 28.0367C9.56121 27.576 9.81717 27.1528 10.193 26.8206C10.5689 26.4885 11.0477 26.2623 11.5691 26.1706C12.0904 26.079 12.6308 26.126 13.1218 26.3058C13.6129 26.4855 14.0326 26.79 14.328 27.1805C14.6233 27.5711 14.7809 28.0303 14.7809 28.5C14.7802 29.1297 14.4968 29.7334 13.9929 30.1787C13.4891 30.6239 12.8059 30.8744 12.0934 30.875ZM30.9059 13.0625H34.0503L36.9312 19H30.9059V13.0625ZM30.9059 30.875C30.3743 30.875 29.8547 30.7357 29.4128 30.4747C28.9708 30.2138 28.6264 29.8428 28.423 29.4089C28.2195 28.9749 28.1663 28.4974 28.27 28.0367C28.3737 27.576 28.6297 27.1528 29.0055 26.8206C29.3814 26.4885 29.8602 26.2623 30.3816 26.1706C30.9029 26.079 31.4433 26.126 31.9343 26.3058C32.4254 26.4855 32.8451 26.79 33.1404 27.1805C33.4358 27.5711 33.5934 28.0303 33.5934 28.5C33.5927 29.1297 33.3093 29.7334 32.8054 30.1787C32.3016 30.6239 31.6184 30.8744 30.9059 30.875ZM37.6246 27.3125H36.0901C35.7941 26.2953 35.1245 25.3937 34.1863 24.749C33.2481 24.1043 32.0943 23.7529 30.9059 23.75V21.375H37.6246V27.3125Z" fill="#007BFF"/>
</svg>
