<svg width="20" height="21" viewBox="0 0 20 21" fill="none" xmlns="http://www.w3.org/2000/svg">
<mask id="path-1-inside-1_627_3606" fill="white">
<path d="M19.3773 19.7865H8.80786C4.43696 19.7865 0.880786 16.4013 0.880786 12.2405C0.880786 8.07967 4.43696 4.69442 8.80786 4.69442H18.3142L15.5428 7.33261L16.1655 7.9254L19.6882 4.57201L19.6891 4.57117L20 4.2752L19.6891 3.97922L19.6886 3.97839L16.1659 0.625L15.5432 1.21779L18.3146 3.85597H8.80786C3.9512 3.85597 0 7.61727 0 12.2405C0 16.8637 3.9512 20.625 8.80786 20.625H19.3773C19.6204 20.625 19.8177 20.4376 19.8177 20.2058C19.8177 19.9739 19.6208 19.7865 19.3773 19.7865Z"/>
</mask>
<path d="M19.3773 19.7865H8.80786C4.43696 19.7865 0.880786 16.4013 0.880786 12.2405C0.880786 8.07967 4.43696 4.69442 8.80786 4.69442H18.3142L15.5428 7.33261L16.1655 7.9254L19.6882 4.57201L19.6891 4.57117L20 4.2752L19.6891 3.97922L19.6886 3.97839L16.1659 0.625L15.5432 1.21779L18.3146 3.85597H8.80786C3.9512 3.85597 0 7.61727 0 12.2405C0 16.8637 3.9512 20.625 8.80786 20.625H19.3773C19.6204 20.625 19.8177 20.4376 19.8177 20.2058C19.8177 19.9739 19.6208 19.7865 19.3773 19.7865Z" fill="#B0B0B0"/>
<path d="M18.3142 4.69442L20.3826 6.86732L25.8167 1.69442H18.3142V4.69442ZM15.5428 7.33261L13.4743 5.15971L11.1917 7.33261L13.4743 9.50551L15.5428 7.33261ZM16.1655 7.9254L14.097 10.0983L16.1655 12.0673L18.234 10.0983L16.1655 7.9254ZM19.6882 4.57201L21.7567 6.74491L21.7572 6.74441L19.6882 4.57201ZM19.6891 4.57117L17.6206 2.39827L17.6201 2.39877L19.6891 4.57117ZM20 4.2752L22.0685 6.4481L24.3511 4.2752L22.0685 2.1023L20 4.2752ZM19.6891 3.97922L17.0327 5.37346L17.2625 5.81123L17.6206 6.15212L19.6891 3.97922ZM19.6886 3.97839L22.345 2.58416L22.1152 2.14638L21.7571 1.80549L19.6886 3.97839ZM16.1659 0.625L18.2344 -1.5479L16.1659 -3.51694L14.0975 -1.5479L16.1659 0.625ZM15.5432 1.21779L13.4748 -0.955113L11.1922 1.21778L13.4748 3.39068L15.5432 1.21779ZM18.3146 3.85597V6.85597H25.8172L20.3831 1.68307L18.3146 3.85597ZM19.3773 16.7865H8.80786V22.7865H19.3773V16.7865ZM8.80786 16.7865C5.95285 16.7865 3.88079 14.6069 3.88079 12.2405H-2.11921C-2.11921 18.1957 2.92107 22.7865 8.80786 22.7865V16.7865ZM3.88079 12.2405C3.88079 9.87406 5.95285 7.69442 8.80786 7.69442V1.69442C2.92107 1.69442 -2.11921 6.28528 -2.11921 12.2405H3.88079ZM8.80786 7.69442H18.3142V1.69442H8.80786V7.69442ZM16.2457 2.52153L13.4743 5.15971L17.6112 9.50551L20.3826 6.86732L16.2457 2.52153ZM13.4743 9.50551L14.097 10.0983L18.234 5.7525L17.6112 5.15971L13.4743 9.50551ZM18.234 10.0983L21.7567 6.74491L17.6197 2.39911L14.097 5.7525L18.234 10.0983ZM21.7572 6.74441L21.7581 6.74358L17.6201 2.39877L17.6192 2.39961L21.7572 6.74441ZM21.7575 6.74407L22.0685 6.4481L17.9315 2.1023L17.6206 2.39827L21.7575 6.74407ZM22.0685 2.1023L21.7575 1.80633L17.6206 6.15212L17.9315 6.4481L22.0685 2.1023ZM22.3454 2.58499L22.345 2.58416L17.0323 5.37262L17.0327 5.37346L22.3454 2.58499ZM21.7571 1.80549L18.2344 -1.5479L14.0975 2.7979L17.6202 6.15128L21.7571 1.80549ZM14.0975 -1.5479L13.4748 -0.955113L17.6117 3.39068L18.2344 2.7979L14.0975 -1.5479ZM13.4748 3.39068L16.2462 6.02887L20.3831 1.68307L17.6117 -0.955112L13.4748 3.39068ZM18.3146 0.855972H8.80786V6.85597H18.3146V0.855972ZM8.80786 0.855972C2.43532 0.855972 -3 5.82287 -3 12.2405H3C3 9.41166 5.46709 6.85597 8.80786 6.85597V0.855972ZM-3 12.2405C-3 18.6581 2.43532 23.625 8.80786 23.625V17.625C5.46709 17.625 3 15.0693 3 12.2405H-3ZM8.80786 23.625H19.3773V17.625H8.80786V23.625ZM19.3773 23.625C21.1343 23.625 22.8177 22.2339 22.8177 20.2058H16.8177C16.8177 18.6413 18.1065 17.625 19.3773 17.625V23.625ZM22.8177 20.2058C22.8177 18.1796 21.1367 16.7865 19.3773 16.7865V22.7865C18.1049 22.7865 16.8177 21.7683 16.8177 20.2058H22.8177Z" fill="#3E3E3E" mask="url(#path-1-inside-1_627_3606)"/>
</svg>
