<svg width="33" height="35" viewBox="0 0 33 35" fill="none" xmlns="http://www.w3.org/2000/svg">
<g filter="url(#filter0_d_1051_2883)">
<path d="M26.4688 17.0979V22.2333C26.4688 23.5553 25.5179 24.6935 24.2068 24.8675C21.685 25.2022 19.1125 25.375 16.5001 25.375C13.8877 25.375 11.3151 25.2022 8.79332 24.8675C7.48228 24.6935 6.53132 23.5553 6.53132 22.2333V17.0979M26.4688 17.0979C26.7557 16.8486 26.9853 16.5401 27.1417 16.1936C27.2982 15.8472 27.3778 15.471 27.3751 15.0909V10.5198C27.3751 9.21354 26.4471 8.08496 25.1554 7.89163C23.7867 7.68671 22.4111 7.53074 21.0313 7.424M26.4688 17.0979C26.2344 17.2973 25.9613 17.4544 25.6556 17.5571C22.7027 18.5369 19.6113 19.0346 16.5001 19.0313C13.3004 19.0313 10.2228 18.5129 7.34452 17.5571C7.04638 17.4579 6.77024 17.302 6.53132 17.0979M6.53132 17.0979C6.24439 16.8486 6.01483 16.5401 5.85839 16.1936C5.70196 15.8472 5.62236 15.471 5.62507 15.0909V10.5198C5.62507 9.21354 6.55307 8.08496 7.84477 7.89163C9.21345 7.68671 10.589 7.53074 11.9688 7.424M21.0313 7.424V6.34375C21.0313 5.62269 20.7449 4.93117 20.235 4.4213C19.7251 3.91144 19.0336 3.625 18.3126 3.625H14.6876C13.9665 3.625 13.275 3.91144 12.7651 4.4213C12.2553 4.93117 11.9688 5.62269 11.9688 6.34375V7.424M21.0313 7.424C18.015 7.19089 14.9852 7.19089 11.9688 7.424M16.5001 15.4063H16.5097V15.4159H16.5001V15.4063Z" stroke="#007BFF" stroke-width="1.5" stroke-linecap="round" stroke-linejoin="round"/>
</g>
<defs>
<filter id="filter0_d_1051_2883" x="-2" y="0" width="37" height="37" filterUnits="userSpaceOnUse" color-interpolation-filters="sRGB">
<feFlood flood-opacity="0" result="BackgroundImageFix"/>
<feColorMatrix in="SourceAlpha" type="matrix" values="0 0 0 0 0 0 0 0 0 0 0 0 0 0 0 0 0 0 127 0" result="hardAlpha"/>
<feOffset dy="4"/>
<feGaussianBlur stdDeviation="2"/>
<feComposite in2="hardAlpha" operator="out"/>
<feColorMatrix type="matrix" values="0 0 0 0 0 0 0 0 0 0 0 0 0 0 0 0 0 0 0.25 0"/>
<feBlend mode="normal" in2="BackgroundImageFix" result="effect1_dropShadow_1051_2883"/>
<feBlend mode="normal" in="SourceGraphic" in2="effect1_dropShadow_1051_2883" result="shape"/>
</filter>
</defs>
</svg>
